<mxfile host="Electron" agent="Mozilla/5.0 (Windows NT 10.0; Win64; x64) AppleWebKit/537.36 (KHTML, like Gecko) draw.io/24.7.8 Chrome/128.0.6613.36 Electron/32.0.1 Safari/537.36" version="24.7.8">
  <diagram name="Page-1" id="hcsgBMeCGxlVrQ5wYwAe">
    <mxGraphModel dx="1050" dy="1798" grid="1" gridSize="10" guides="1" tooltips="1" connect="1" arrows="1" fold="1" page="1" pageScale="1" pageWidth="827" pageHeight="1169" math="0" shadow="0">
      <root>
        <mxCell id="0" />
        <mxCell id="1" parent="0" />
        <mxCell id="4VdCDNM-KMz0FRxUj7Gg-78" value="" style="rounded=0;whiteSpace=wrap;html=1;fillColor=#ffe6cc;strokeColor=#d79b00;" vertex="1" parent="1">
          <mxGeometry x="150" y="-100" width="600" height="490" as="geometry" />
        </mxCell>
        <mxCell id="4VdCDNM-KMz0FRxUj7Gg-77" value="" style="rounded=0;whiteSpace=wrap;html=1;fillColor=#f8cecc;strokeColor=#b85450;" vertex="1" parent="1">
          <mxGeometry x="170" y="-80" width="560" height="130" as="geometry" />
        </mxCell>
        <mxCell id="4VdCDNM-KMz0FRxUj7Gg-31" value="" style="rounded=0;whiteSpace=wrap;html=1;fillColor=#f8cecc;strokeColor=#b85450;" vertex="1" parent="1">
          <mxGeometry x="170" y="145" width="560" height="220" as="geometry" />
        </mxCell>
        <mxCell id="4VdCDNM-KMz0FRxUj7Gg-45" value="" style="rounded=0;whiteSpace=wrap;html=1;fillColor=#fff2cc;strokeColor=#d6b656;" vertex="1" parent="1">
          <mxGeometry x="600" y="160" width="100" height="200" as="geometry" />
        </mxCell>
        <mxCell id="4VdCDNM-KMz0FRxUj7Gg-1" value="" style="shape=table;startSize=0;container=1;collapsible=0;childLayout=tableLayout;fontSize=16;fillColor=#fff2cc;strokeColor=#d6b656;" vertex="1" parent="1">
          <mxGeometry x="190" y="210" width="190" height="30" as="geometry" />
        </mxCell>
        <mxCell id="4VdCDNM-KMz0FRxUj7Gg-2" value="" style="shape=tableRow;horizontal=0;startSize=0;swimlaneHead=0;swimlaneBody=0;strokeColor=inherit;top=0;left=0;bottom=0;right=0;collapsible=0;dropTarget=0;fillColor=none;points=[[0,0.5],[1,0.5]];portConstraint=eastwest;fontSize=16;" vertex="1" parent="4VdCDNM-KMz0FRxUj7Gg-1">
          <mxGeometry width="190" height="30" as="geometry" />
        </mxCell>
        <mxCell id="4VdCDNM-KMz0FRxUj7Gg-3" value="" style="shape=partialRectangle;html=1;whiteSpace=wrap;connectable=0;strokeColor=inherit;overflow=hidden;fillColor=none;top=0;left=0;bottom=0;right=0;pointerEvents=1;fontSize=16;" vertex="1" parent="4VdCDNM-KMz0FRxUj7Gg-2">
          <mxGeometry width="38" height="30" as="geometry">
            <mxRectangle width="38" height="30" as="alternateBounds" />
          </mxGeometry>
        </mxCell>
        <mxCell id="4VdCDNM-KMz0FRxUj7Gg-4" value="" style="shape=partialRectangle;html=1;whiteSpace=wrap;connectable=0;strokeColor=inherit;overflow=hidden;fillColor=none;top=0;left=0;bottom=0;right=0;pointerEvents=1;fontSize=16;" vertex="1" parent="4VdCDNM-KMz0FRxUj7Gg-2">
          <mxGeometry x="38" width="38" height="30" as="geometry">
            <mxRectangle width="38" height="30" as="alternateBounds" />
          </mxGeometry>
        </mxCell>
        <mxCell id="4VdCDNM-KMz0FRxUj7Gg-5" value="" style="shape=partialRectangle;html=1;whiteSpace=wrap;connectable=0;strokeColor=#A50040;overflow=hidden;fillColor=#d80073;top=0;left=0;bottom=0;right=0;pointerEvents=1;fontSize=16;fontColor=#ffffff;" vertex="1" parent="4VdCDNM-KMz0FRxUj7Gg-2">
          <mxGeometry x="76" width="38" height="30" as="geometry">
            <mxRectangle width="38" height="30" as="alternateBounds" />
          </mxGeometry>
        </mxCell>
        <mxCell id="4VdCDNM-KMz0FRxUj7Gg-14" style="shape=partialRectangle;html=1;whiteSpace=wrap;connectable=0;strokeColor=inherit;overflow=hidden;fillColor=none;top=0;left=0;bottom=0;right=0;pointerEvents=1;fontSize=16;" vertex="1" parent="4VdCDNM-KMz0FRxUj7Gg-2">
          <mxGeometry x="114" width="38" height="30" as="geometry">
            <mxRectangle width="38" height="30" as="alternateBounds" />
          </mxGeometry>
        </mxCell>
        <mxCell id="4VdCDNM-KMz0FRxUj7Gg-15" style="shape=partialRectangle;html=1;whiteSpace=wrap;connectable=0;strokeColor=inherit;overflow=hidden;fillColor=none;top=0;left=0;bottom=0;right=0;pointerEvents=1;fontSize=16;" vertex="1" parent="4VdCDNM-KMz0FRxUj7Gg-2">
          <mxGeometry x="152" width="38" height="30" as="geometry">
            <mxRectangle width="38" height="30" as="alternateBounds" />
          </mxGeometry>
        </mxCell>
        <mxCell id="4VdCDNM-KMz0FRxUj7Gg-16" value="" style="shape=curlyBracket;whiteSpace=wrap;html=1;rounded=1;flipH=1;labelPosition=right;verticalLabelPosition=middle;align=left;verticalAlign=middle;direction=south;" vertex="1" parent="1">
          <mxGeometry x="190" y="190" width="190" height="20" as="geometry" />
        </mxCell>
        <mxCell id="4VdCDNM-KMz0FRxUj7Gg-17" value="Pick A Sample From The Stream" style="text;html=1;align=center;verticalAlign=middle;whiteSpace=wrap;rounded=0;" vertex="1" parent="1">
          <mxGeometry x="190" y="160" width="200" height="30" as="geometry" />
        </mxCell>
        <mxCell id="4VdCDNM-KMz0FRxUj7Gg-18" value="" style="shape=table;startSize=0;container=1;collapsible=0;childLayout=tableLayout;fontSize=16;fillColor=#fff2cc;strokeColor=#d6b656;" vertex="1" parent="1">
          <mxGeometry x="190" y="320" width="228" height="30" as="geometry" />
        </mxCell>
        <mxCell id="4VdCDNM-KMz0FRxUj7Gg-19" value="" style="shape=tableRow;horizontal=0;startSize=0;swimlaneHead=0;swimlaneBody=0;strokeColor=inherit;top=0;left=0;bottom=0;right=0;collapsible=0;dropTarget=0;fillColor=none;points=[[0,0.5],[1,0.5]];portConstraint=eastwest;fontSize=16;" vertex="1" parent="4VdCDNM-KMz0FRxUj7Gg-18">
          <mxGeometry width="228" height="30" as="geometry" />
        </mxCell>
        <mxCell id="4VdCDNM-KMz0FRxUj7Gg-20" value="" style="shape=partialRectangle;html=1;whiteSpace=wrap;connectable=0;strokeColor=inherit;overflow=hidden;fillColor=none;top=0;left=0;bottom=0;right=0;pointerEvents=1;fontSize=16;" vertex="1" parent="4VdCDNM-KMz0FRxUj7Gg-19">
          <mxGeometry width="38" height="30" as="geometry">
            <mxRectangle width="38" height="30" as="alternateBounds" />
          </mxGeometry>
        </mxCell>
        <mxCell id="4VdCDNM-KMz0FRxUj7Gg-21" value="" style="shape=partialRectangle;html=1;whiteSpace=wrap;connectable=0;strokeColor=inherit;overflow=hidden;fillColor=none;top=0;left=0;bottom=0;right=0;pointerEvents=1;fontSize=16;" vertex="1" parent="4VdCDNM-KMz0FRxUj7Gg-19">
          <mxGeometry x="38" width="38" height="30" as="geometry">
            <mxRectangle width="38" height="30" as="alternateBounds" />
          </mxGeometry>
        </mxCell>
        <mxCell id="4VdCDNM-KMz0FRxUj7Gg-22" value="" style="shape=partialRectangle;html=1;whiteSpace=wrap;connectable=0;strokeColor=inherit;overflow=hidden;fillColor=none;top=0;left=0;bottom=0;right=0;pointerEvents=1;fontSize=16;" vertex="1" parent="4VdCDNM-KMz0FRxUj7Gg-19">
          <mxGeometry x="76" width="38" height="30" as="geometry">
            <mxRectangle width="38" height="30" as="alternateBounds" />
          </mxGeometry>
        </mxCell>
        <mxCell id="4VdCDNM-KMz0FRxUj7Gg-23" style="shape=partialRectangle;html=1;whiteSpace=wrap;connectable=0;strokeColor=inherit;overflow=hidden;fillColor=none;top=0;left=0;bottom=0;right=0;pointerEvents=1;fontSize=16;" vertex="1" parent="4VdCDNM-KMz0FRxUj7Gg-19">
          <mxGeometry x="114" width="38" height="30" as="geometry">
            <mxRectangle width="38" height="30" as="alternateBounds" />
          </mxGeometry>
        </mxCell>
        <mxCell id="4VdCDNM-KMz0FRxUj7Gg-24" style="shape=partialRectangle;html=1;whiteSpace=wrap;connectable=0;strokeColor=inherit;overflow=hidden;fillColor=none;top=0;left=0;bottom=0;right=0;pointerEvents=1;fontSize=16;" vertex="1" parent="4VdCDNM-KMz0FRxUj7Gg-19">
          <mxGeometry x="152" width="38" height="30" as="geometry">
            <mxRectangle width="38" height="30" as="alternateBounds" />
          </mxGeometry>
        </mxCell>
        <mxCell id="4VdCDNM-KMz0FRxUj7Gg-26" style="shape=partialRectangle;html=1;whiteSpace=wrap;connectable=0;strokeColor=#6F0000;overflow=hidden;fillColor=#a20025;top=0;left=0;bottom=0;right=0;pointerEvents=1;fontSize=16;fontColor=#ffffff;" vertex="1" parent="4VdCDNM-KMz0FRxUj7Gg-19">
          <mxGeometry x="190" width="38" height="30" as="geometry">
            <mxRectangle width="38" height="30" as="alternateBounds" />
          </mxGeometry>
        </mxCell>
        <mxCell id="4VdCDNM-KMz0FRxUj7Gg-27" value="" style="shape=curlyBracket;whiteSpace=wrap;html=1;rounded=1;flipH=1;labelPosition=right;verticalLabelPosition=middle;align=left;verticalAlign=middle;direction=south;" vertex="1" parent="1">
          <mxGeometry x="190" y="300" width="230" height="20" as="geometry" />
        </mxCell>
        <mxCell id="4VdCDNM-KMz0FRxUj7Gg-28" value="Pick A Sample From The Stream" style="text;html=1;align=center;verticalAlign=middle;whiteSpace=wrap;rounded=0;" vertex="1" parent="1">
          <mxGeometry x="214" y="260" width="200" height="30" as="geometry" />
        </mxCell>
        <mxCell id="4VdCDNM-KMz0FRxUj7Gg-29" value="Fram K - 1" style="text;html=1;align=center;verticalAlign=middle;whiteSpace=wrap;rounded=0;fontStyle=1;fontSize=15;" vertex="1" parent="1">
          <mxGeometry x="460" y="210" width="80" height="30" as="geometry" />
        </mxCell>
        <mxCell id="4VdCDNM-KMz0FRxUj7Gg-30" value="Fram K" style="text;html=1;align=center;verticalAlign=middle;whiteSpace=wrap;rounded=0;fontStyle=1;fontSize=15;" vertex="1" parent="1">
          <mxGeometry x="460" y="310" width="60" height="30" as="geometry" />
        </mxCell>
        <mxCell id="4VdCDNM-KMz0FRxUj7Gg-32" value="Stored Sample" style="text;html=1;align=center;verticalAlign=middle;whiteSpace=wrap;rounded=0;fontStyle=1" vertex="1" parent="1">
          <mxGeometry x="605" y="170" width="90" height="30" as="geometry" />
        </mxCell>
        <mxCell id="4VdCDNM-KMz0FRxUj7Gg-33" value="" style="rounded=0;whiteSpace=wrap;html=1;fillColor=#d80073;fontColor=#ffffff;strokeColor=#A50040;" vertex="1" parent="1">
          <mxGeometry x="620" y="220" width="50" height="20" as="geometry" />
        </mxCell>
        <mxCell id="4VdCDNM-KMz0FRxUj7Gg-34" value="" style="rounded=0;whiteSpace=wrap;html=1;fillColor=#a20025;fontColor=#ffffff;strokeColor=#6F0000;" vertex="1" parent="1">
          <mxGeometry x="620" y="325" width="50" height="20" as="geometry" />
        </mxCell>
        <mxCell id="4VdCDNM-KMz0FRxUj7Gg-35" value="" style="shape=singleArrow;direction=south;whiteSpace=wrap;html=1;fillColor=#e1d5e7;strokeColor=#9673a6;" vertex="1" parent="1">
          <mxGeometry x="635" y="260" width="20" height="40" as="geometry" />
        </mxCell>
        <mxCell id="4VdCDNM-KMz0FRxUj7Gg-37" value="" style="shape=table;startSize=0;container=1;collapsible=0;childLayout=tableLayout;fontSize=16;" vertex="1" parent="1">
          <mxGeometry x="380" y="-60" width="290" height="90" as="geometry" />
        </mxCell>
        <mxCell id="4VdCDNM-KMz0FRxUj7Gg-60" style="shape=tableRow;horizontal=0;startSize=0;swimlaneHead=0;swimlaneBody=0;strokeColor=inherit;top=0;left=0;bottom=0;right=0;collapsible=0;dropTarget=0;fillColor=none;points=[[0,0.5],[1,0.5]];portConstraint=eastwest;fontSize=16;" vertex="1" parent="4VdCDNM-KMz0FRxUj7Gg-37">
          <mxGeometry width="290" height="30" as="geometry" />
        </mxCell>
        <mxCell id="4VdCDNM-KMz0FRxUj7Gg-61" value="K -5" style="shape=partialRectangle;html=1;whiteSpace=wrap;connectable=0;strokeColor=#6c8ebf;overflow=hidden;fillColor=#dae8fc;top=0;left=0;bottom=0;right=0;pointerEvents=1;fontSize=16;" vertex="1" parent="4VdCDNM-KMz0FRxUj7Gg-60">
          <mxGeometry width="48" height="30" as="geometry">
            <mxRectangle width="48" height="30" as="alternateBounds" />
          </mxGeometry>
        </mxCell>
        <mxCell id="4VdCDNM-KMz0FRxUj7Gg-62" value="K -4" style="shape=partialRectangle;html=1;whiteSpace=wrap;connectable=0;strokeColor=#6c8ebf;overflow=hidden;fillColor=#dae8fc;top=0;left=0;bottom=0;right=0;pointerEvents=1;fontSize=16;" vertex="1" parent="4VdCDNM-KMz0FRxUj7Gg-60">
          <mxGeometry x="48" width="49" height="30" as="geometry">
            <mxRectangle width="49" height="30" as="alternateBounds" />
          </mxGeometry>
        </mxCell>
        <mxCell id="4VdCDNM-KMz0FRxUj7Gg-63" value="K -3" style="shape=partialRectangle;html=1;whiteSpace=wrap;connectable=0;strokeColor=#6c8ebf;overflow=hidden;fillColor=#dae8fc;top=0;left=0;bottom=0;right=0;pointerEvents=1;fontSize=16;" vertex="1" parent="4VdCDNM-KMz0FRxUj7Gg-60">
          <mxGeometry x="97" width="48" height="30" as="geometry">
            <mxRectangle width="48" height="30" as="alternateBounds" />
          </mxGeometry>
        </mxCell>
        <mxCell id="4VdCDNM-KMz0FRxUj7Gg-64" value="K -2" style="shape=partialRectangle;html=1;whiteSpace=wrap;connectable=0;strokeColor=#6c8ebf;overflow=hidden;fillColor=#dae8fc;top=0;left=0;bottom=0;right=0;pointerEvents=1;fontSize=16;" vertex="1" parent="4VdCDNM-KMz0FRxUj7Gg-60">
          <mxGeometry x="145" width="48" height="30" as="geometry">
            <mxRectangle width="48" height="30" as="alternateBounds" />
          </mxGeometry>
        </mxCell>
        <mxCell id="4VdCDNM-KMz0FRxUj7Gg-65" value="K -1" style="shape=partialRectangle;html=1;whiteSpace=wrap;connectable=0;strokeColor=#6c8ebf;overflow=hidden;fillColor=#dae8fc;top=0;left=0;bottom=0;right=0;pointerEvents=1;fontSize=16;" vertex="1" parent="4VdCDNM-KMz0FRxUj7Gg-60">
          <mxGeometry x="193" width="49" height="30" as="geometry">
            <mxRectangle width="49" height="30" as="alternateBounds" />
          </mxGeometry>
        </mxCell>
        <mxCell id="4VdCDNM-KMz0FRxUj7Gg-66" value="K" style="shape=partialRectangle;html=1;whiteSpace=wrap;connectable=0;overflow=hidden;top=0;left=0;bottom=0;right=0;pointerEvents=1;fontSize=16;fillColor=#dae8fc;strokeColor=#6c8ebf;" vertex="1" parent="4VdCDNM-KMz0FRxUj7Gg-60">
          <mxGeometry x="242" width="48" height="30" as="geometry">
            <mxRectangle width="48" height="30" as="alternateBounds" />
          </mxGeometry>
        </mxCell>
        <mxCell id="4VdCDNM-KMz0FRxUj7Gg-38" value="" style="shape=tableRow;horizontal=0;startSize=0;swimlaneHead=0;swimlaneBody=0;strokeColor=inherit;top=0;left=0;bottom=0;right=0;collapsible=0;dropTarget=0;fillColor=none;points=[[0,0.5],[1,0.5]];portConstraint=eastwest;fontSize=16;" vertex="1" parent="4VdCDNM-KMz0FRxUj7Gg-37">
          <mxGeometry y="30" width="290" height="30" as="geometry" />
        </mxCell>
        <mxCell id="4VdCDNM-KMz0FRxUj7Gg-39" value="Pick" style="shape=partialRectangle;html=1;whiteSpace=wrap;connectable=0;strokeColor=#2D7600;overflow=hidden;fillColor=#60a917;top=0;left=0;bottom=0;right=0;pointerEvents=1;fontSize=16;fontColor=#ffffff;" vertex="1" parent="4VdCDNM-KMz0FRxUj7Gg-38">
          <mxGeometry width="48" height="30" as="geometry">
            <mxRectangle width="48" height="30" as="alternateBounds" />
          </mxGeometry>
        </mxCell>
        <mxCell id="4VdCDNM-KMz0FRxUj7Gg-40" value="Ignore" style="shape=partialRectangle;html=1;whiteSpace=wrap;connectable=0;strokeColor=#666666;overflow=hidden;fillColor=#f5f5f5;top=0;left=0;bottom=0;right=0;pointerEvents=1;fontSize=16;fontColor=#333333;" vertex="1" parent="4VdCDNM-KMz0FRxUj7Gg-38">
          <mxGeometry x="48" width="49" height="30" as="geometry">
            <mxRectangle width="49" height="30" as="alternateBounds" />
          </mxGeometry>
        </mxCell>
        <mxCell id="4VdCDNM-KMz0FRxUj7Gg-41" value="Pick" style="shape=partialRectangle;html=1;whiteSpace=wrap;connectable=0;strokeColor=#A50040;overflow=hidden;fillColor=#d80073;top=0;left=0;bottom=0;right=0;pointerEvents=1;fontSize=16;fontColor=#ffffff;" vertex="1" parent="4VdCDNM-KMz0FRxUj7Gg-38">
          <mxGeometry x="97" width="48" height="30" as="geometry">
            <mxRectangle width="48" height="30" as="alternateBounds" />
          </mxGeometry>
        </mxCell>
        <mxCell id="4VdCDNM-KMz0FRxUj7Gg-42" value="Ignore" style="shape=partialRectangle;html=1;whiteSpace=wrap;connectable=0;strokeColor=#666666;overflow=hidden;fillColor=#f5f5f5;top=0;left=0;bottom=0;right=0;pointerEvents=1;fontSize=16;fontColor=#333333;" vertex="1" parent="4VdCDNM-KMz0FRxUj7Gg-38">
          <mxGeometry x="145" width="48" height="30" as="geometry">
            <mxRectangle width="48" height="30" as="alternateBounds" />
          </mxGeometry>
        </mxCell>
        <mxCell id="4VdCDNM-KMz0FRxUj7Gg-43" value="Ignore" style="shape=partialRectangle;html=1;whiteSpace=wrap;connectable=0;overflow=hidden;top=0;left=0;bottom=0;right=0;pointerEvents=1;fontSize=16;fillColor=#f5f5f5;fontColor=#333333;strokeColor=#666666;" vertex="1" parent="4VdCDNM-KMz0FRxUj7Gg-38">
          <mxGeometry x="193" width="49" height="30" as="geometry">
            <mxRectangle width="49" height="30" as="alternateBounds" />
          </mxGeometry>
        </mxCell>
        <mxCell id="4VdCDNM-KMz0FRxUj7Gg-44" value="Pick" style="shape=partialRectangle;html=1;whiteSpace=wrap;connectable=0;overflow=hidden;top=0;left=0;bottom=0;right=0;pointerEvents=1;fontSize=16;fillColor=#a20025;fontColor=#ffffff;strokeColor=#6F0000;" vertex="1" parent="4VdCDNM-KMz0FRxUj7Gg-38">
          <mxGeometry x="242" width="48" height="30" as="geometry">
            <mxRectangle width="48" height="30" as="alternateBounds" />
          </mxGeometry>
        </mxCell>
        <mxCell id="4VdCDNM-KMz0FRxUj7Gg-46" style="shape=tableRow;horizontal=0;startSize=0;swimlaneHead=0;swimlaneBody=0;strokeColor=inherit;top=0;left=0;bottom=0;right=0;collapsible=0;dropTarget=0;fillColor=none;points=[[0,0.5],[1,0.5]];portConstraint=eastwest;fontSize=16;" vertex="1" parent="4VdCDNM-KMz0FRxUj7Gg-37">
          <mxGeometry y="60" width="290" height="30" as="geometry" />
        </mxCell>
        <mxCell id="4VdCDNM-KMz0FRxUj7Gg-47" style="shape=partialRectangle;html=1;whiteSpace=wrap;connectable=0;strokeColor=#2D7600;overflow=hidden;fillColor=#60a917;top=0;left=0;bottom=0;right=0;pointerEvents=1;fontSize=16;fontColor=#ffffff;" vertex="1" parent="4VdCDNM-KMz0FRxUj7Gg-46">
          <mxGeometry width="48" height="30" as="geometry">
            <mxRectangle width="48" height="30" as="alternateBounds" />
          </mxGeometry>
        </mxCell>
        <mxCell id="4VdCDNM-KMz0FRxUj7Gg-48" style="shape=partialRectangle;html=1;whiteSpace=wrap;connectable=0;strokeColor=#2D7600;overflow=hidden;fillColor=#60a917;top=0;left=0;bottom=0;right=0;pointerEvents=1;fontSize=16;fontColor=#ffffff;" vertex="1" parent="4VdCDNM-KMz0FRxUj7Gg-46">
          <mxGeometry x="48" width="49" height="30" as="geometry">
            <mxRectangle width="49" height="30" as="alternateBounds" />
          </mxGeometry>
        </mxCell>
        <mxCell id="4VdCDNM-KMz0FRxUj7Gg-49" style="shape=partialRectangle;html=1;whiteSpace=wrap;connectable=0;strokeColor=#A50040;overflow=hidden;fillColor=#d80073;top=0;left=0;bottom=0;right=0;pointerEvents=1;fontSize=16;fontColor=#ffffff;" vertex="1" parent="4VdCDNM-KMz0FRxUj7Gg-46">
          <mxGeometry x="97" width="48" height="30" as="geometry">
            <mxRectangle width="48" height="30" as="alternateBounds" />
          </mxGeometry>
        </mxCell>
        <mxCell id="4VdCDNM-KMz0FRxUj7Gg-50" style="shape=partialRectangle;html=1;whiteSpace=wrap;connectable=0;strokeColor=#A50040;overflow=hidden;fillColor=#d80073;top=0;left=0;bottom=0;right=0;pointerEvents=1;fontSize=16;fontColor=#ffffff;" vertex="1" parent="4VdCDNM-KMz0FRxUj7Gg-46">
          <mxGeometry x="145" width="48" height="30" as="geometry">
            <mxRectangle width="48" height="30" as="alternateBounds" />
          </mxGeometry>
        </mxCell>
        <mxCell id="4VdCDNM-KMz0FRxUj7Gg-51" style="shape=partialRectangle;html=1;whiteSpace=wrap;connectable=0;strokeColor=#A50040;overflow=hidden;fillColor=#d80073;top=0;left=0;bottom=0;right=0;pointerEvents=1;fontSize=16;fontColor=#ffffff;" vertex="1" parent="4VdCDNM-KMz0FRxUj7Gg-46">
          <mxGeometry x="193" width="49" height="30" as="geometry">
            <mxRectangle width="49" height="30" as="alternateBounds" />
          </mxGeometry>
        </mxCell>
        <mxCell id="4VdCDNM-KMz0FRxUj7Gg-52" style="shape=partialRectangle;html=1;whiteSpace=wrap;connectable=0;overflow=hidden;top=0;left=0;bottom=0;right=0;pointerEvents=1;fontSize=16;fillColor=#a20025;fontColor=#ffffff;strokeColor=#6F0000;" vertex="1" parent="4VdCDNM-KMz0FRxUj7Gg-46">
          <mxGeometry x="242" width="48" height="30" as="geometry">
            <mxRectangle width="48" height="30" as="alternateBounds" />
          </mxGeometry>
        </mxCell>
        <mxCell id="4VdCDNM-KMz0FRxUj7Gg-73" value="Frame Number" style="text;html=1;align=center;verticalAlign=middle;whiteSpace=wrap;rounded=0;fontStyle=1" vertex="1" parent="1">
          <mxGeometry x="190" y="-60" width="100" height="30" as="geometry" />
        </mxCell>
        <mxCell id="4VdCDNM-KMz0FRxUj7Gg-74" value="Pick Or Ignore" style="text;html=1;align=center;verticalAlign=middle;whiteSpace=wrap;rounded=0;fontStyle=1" vertex="1" parent="1">
          <mxGeometry x="195" y="-20" width="90" height="30" as="geometry" />
        </mxCell>
        <mxCell id="4VdCDNM-KMz0FRxUj7Gg-75" value="Stored Sample" style="text;html=1;align=center;verticalAlign=middle;whiteSpace=wrap;rounded=0;fontStyle=1" vertex="1" parent="1">
          <mxGeometry x="195" y="10" width="90" height="30" as="geometry" />
        </mxCell>
        <mxCell id="4VdCDNM-KMz0FRxUj7Gg-76" value="" style="shape=singleArrow;direction=south;whiteSpace=wrap;html=1;fillColor=#e1d5e7;strokeColor=#9673a6;" vertex="1" parent="1">
          <mxGeometry x="429.5" y="70" width="41" height="55" as="geometry" />
        </mxCell>
      </root>
    </mxGraphModel>
  </diagram>
</mxfile>
